<svg width="81" height="81" viewBox="0 0 81 81" fill="none" xmlns="http://www.w3.org/2000/svg">
<circle cx="40.5" cy="40.5" r="40.5" fill="#F5B01C"/>
<path d="M60 47H59V40.2437C59 39.45 58.6813 38.6875 58.1188 38.125L51.875 31.8812C51.3125 31.3187 50.55 31 49.7563 31H47V28C47 26.3438 45.6562 25 44 25H28C26.3438 25 25 26.3438 25 28V31H21.5C21.225 31 21 31.225 21 31.5V32.5C21 32.775 21.225 33 21.5 33H38.5C38.775 33 39 33.225 39 33.5V34.5C39 34.775 38.775 35 38.5 35H23.5C23.225 35 23 35.225 23 35.5V36.5C23 36.775 23.225 37 23.5 37H36.5C36.775 37 37 37.225 37 37.5V38.5C37 38.775 36.775 39 36.5 39H21.5C21.225 39 21 39.225 21 39.5V40.5C21 40.775 21.225 41 21.5 41H34.5C34.775 41 35 41.225 35 41.5V42.5C35 42.775 34.775 43 34.5 43H25V51C25 54.3125 27.6875 57 31 57C34.3125 57 37 54.3125 37 51H45C45 54.3125 47.6875 57 51 57C54.3125 57 57 54.3125 57 51H60C60.55 51 61 50.55 61 50V48C61 47.45 60.55 47 60 47ZM31 54C29.3438 54 28 52.6562 28 51C28 49.3438 29.3438 48 31 48C32.6562 48 34 49.3438 34 51C34 52.6562 32.6562 54 31 54ZM51 54C49.3438 54 48 52.6562 48 51C48 49.3438 49.3438 48 51 48C52.6562 48 54 49.3438 54 51C54 52.6562 52.6562 54 51 54ZM56 41H47V34H49.7563L56 40.2437V41Z" fill="white"/>
</svg>
