<svg width="191" height="122" viewBox="0 0 191 122" fill="none" xmlns="http://www.w3.org/2000/svg">
<g clip-path="url(#clip0_144_75)">
<path d="M182.839 92.8132C184.915 91.3431 186.633 89.5145 187.957 87.3452C189.622 84.6381 190.445 81.4827 190.445 77.9868C190.445 75.4948 190.016 73.2179 189.174 71.1921C188.709 70.0626 188.118 69.0048 187.42 68.0188C188.118 66.7638 188.494 65.3475 188.494 63.8595V56.2222C188.494 52.4215 185.989 49.0689 182.338 47.9932C180.548 47.4733 178.704 47.061 176.879 46.7921C175 46.5052 173.121 46.3618 171.295 46.3618C168.843 46.3618 166.445 46.6307 164.136 47.1685C162.543 47.5271 161.04 48.047 159.626 48.6745V40.3201C159.626 35.5871 155.796 31.7325 151.053 31.7325H142.248V20.8861C142.248 20.4738 142.212 20.0794 142.158 19.6849C142.283 19.0933 142.355 18.4838 142.355 17.8563V9.57355C142.355 4.84056 138.525 0.986042 133.782 0.986042L105.505 0.537842C100.78 0.537842 96.9317 4.37443 96.9317 9.12535V13.2129C94.1218 12.1731 90.9182 11.6173 87.3388 11.6173C83.7593 11.6173 80.5199 12.1552 77.5847 13.2129V12.2627C77.5847 8.37237 74.9717 4.96606 71.2312 3.96209C66.9359 2.8147 62.551 2.27686 57.4503 2.27686C49.0743 2.27686 41.9691 5.12741 36.8863 10.5237C31.9287 15.7766 29.3157 23.0733 29.3157 31.625C29.3157 32.5393 29.3515 33.4178 29.3873 34.2962H9.10967C4.38478 34.2962 0.536865 38.1328 0.536865 42.8838C0.536865 42.8838 0.948503 93.2256 0.948503 94.1578V112.57C0.948503 117.303 4.77853 121.157 9.52131 121.157H22.3179C22.3179 121.157 34.0943 121.462 35.2755 121.462C37.1368 121.462 55.7679 121.426 58.3988 121.426C61.2982 121.426 73.8621 121.462 76.9941 121.462C78.1575 121.462 91.1151 121.426 93.227 121.426C96.1264 121.426 111.053 121.337 115.563 121.337C117.872 121.337 133.943 121.444 135.661 121.444C136.789 121.444 148.583 121.408 150.284 121.408H160.628C162.543 121.408 167.823 121.139 168.754 121.139H179.993C184.718 121.139 188.566 117.303 188.566 112.552V104.664C188.566 99.088 186.186 95.0901 182.875 92.7953L182.839 92.8132Z" fill="white" stroke="#010101" stroke-width="0.61" stroke-miterlimit="10"/>
<path d="M32.5194 51.4534H18.6132C18.0405 51.4534 17.5573 51.9195 17.5573 52.5111V61.5647C17.5573 62.1384 18.0226 62.6225 18.6132 62.6225H31.2129C31.7856 62.6225 32.2688 63.0886 32.2688 63.6802V69.8833C32.2688 70.457 31.8035 70.9411 31.2129 70.9411H18.6132C18.0405 70.9411 17.5573 71.4072 17.5573 71.9988V87.5424C17.5573 88.1161 17.0919 88.6001 16.5013 88.6001H8.39383C7.82112 88.6001 7.33789 88.134 7.33789 87.5424V44.2104C7.33789 43.6367 7.80322 43.1527 8.39383 43.1527H32.5194C33.0921 43.1527 33.5753 43.6188 33.5753 44.2104V50.4315C33.5753 51.0051 33.11 51.4892 32.5194 51.4892V51.4534Z" fill="#F7B21F"/>
<path d="M55.4817 89.3531C50.0767 89.3531 45.8351 87.8293 42.7567 84.7994C39.6605 81.7696 38.1213 77.6461 38.1213 72.465C38.1213 67.2838 39.7321 62.9093 42.9357 59.8616C46.1393 56.8317 50.4705 55.3079 55.9292 55.3079C61.3878 55.3079 65.5221 56.8317 68.5825 59.8616C71.643 62.8914 73.1643 66.9073 73.1643 71.8913C73.1643 77.2697 71.5893 81.5365 68.4394 84.656C65.2894 87.7755 60.9762 89.3531 55.4817 89.3531ZM55.7323 62.999C53.3698 62.999 51.5443 63.8057 50.2199 65.4372C48.9134 67.0686 48.2512 69.3634 48.2512 72.3395C48.2512 78.5784 50.7568 81.68 55.786 81.68C60.8151 81.68 62.9628 78.4708 62.9628 72.0705C62.9628 66.0109 60.5467 62.9811 55.7144 62.9811L55.7323 62.999Z" fill="#F7B21F"/>
<path d="M95.0884 89.3531C89.6834 89.3531 85.4418 87.8293 82.3634 84.7994C79.2672 81.7696 77.728 77.6461 77.728 72.465C77.728 67.2838 79.3388 62.9093 82.5424 59.8616C85.746 56.8317 90.0772 55.3079 95.5358 55.3079C100.995 55.3079 105.129 56.8317 108.189 59.8616C111.25 62.8914 112.771 66.9073 112.771 71.8913C112.771 77.2697 111.196 81.5365 108.046 84.656C104.896 87.7755 100.583 89.3531 95.0884 89.3531ZM95.339 62.999C92.9765 62.999 91.151 63.8057 89.8266 65.4372C88.5201 67.0686 87.8579 69.3634 87.8579 72.3395C87.8579 78.5784 90.3635 81.68 95.3927 81.68C100.422 81.68 102.569 78.4708 102.569 72.0705C102.569 66.0109 100.153 62.9811 95.3211 62.9811L95.339 62.999Z" fill="#F7B21F"/>
<path d="M149.908 88.5643H142.015C141.442 88.5643 140.959 88.0982 140.959 87.5065V84.1002H140.834C138.561 87.6141 135.214 89.3531 130.811 89.3531C126.767 89.3531 123.509 87.9189 121.039 85.0683C118.57 82.1999 117.335 78.2019 117.335 73.0745C117.335 67.9471 118.695 63.4113 121.415 60.1843C124.136 56.9572 127.697 55.3437 132.1 55.3437C136.27 55.3437 139.187 56.8497 140.834 59.8437H140.959V41.593C140.959 41.0193 141.424 40.5352 142.015 40.5352H149.908C150.481 40.5352 150.964 41.0013 150.964 41.593V87.5245C150.964 88.0982 150.498 88.5822 149.908 88.5822V88.5643ZM141.138 72.7877V70.3495C141.138 68.234 140.53 66.477 139.295 65.0966C138.078 63.6982 136.485 62.999 134.516 62.999C132.297 62.999 130.579 63.8774 129.326 65.6165C128.073 67.3555 127.465 69.7578 127.465 72.7877C127.465 75.6382 128.073 77.8434 129.272 79.3852C130.471 80.927 132.136 81.6979 134.266 81.6979C136.395 81.6979 137.935 80.8911 139.223 79.2597C140.494 77.6282 141.138 75.4769 141.138 72.7877Z" fill="#F7B21F"/>
<path d="M157.246 86.9508V81.3752C157.246 80.5863 158.069 80.0844 158.785 80.4429C159.912 81.0166 161.04 81.4648 162.167 81.8054C163.796 82.2895 165.353 82.5405 166.803 82.5405C168.575 82.5405 169.971 82.2895 170.991 81.8054C172.011 81.3214 172.53 80.5863 172.53 79.5824C172.53 78.9549 172.297 78.417 171.832 78.0047C171.367 77.5744 170.776 77.2159 170.042 76.8932C169.308 76.5705 168.521 76.2836 167.662 76.0326C166.803 75.7816 165.962 75.4948 165.156 75.1721C163.868 74.688 162.74 74.1681 161.756 73.6124C160.771 73.0566 159.948 72.4112 159.286 71.6582C158.624 70.9232 158.123 70.0626 157.765 69.0945C157.425 68.1264 157.246 66.979 157.246 65.6344C157.246 63.8237 157.639 62.246 158.427 60.9373C159.214 59.6285 160.27 58.5528 161.595 57.7281C162.919 56.8855 164.422 56.276 166.123 55.8816C167.823 55.4871 169.595 55.2899 171.42 55.2899C172.852 55.2899 174.302 55.3975 175.787 55.6306C176.986 55.8099 178.185 56.0608 179.367 56.3835C179.832 56.509 180.154 56.9214 180.154 57.4054V62.6225C180.154 63.3755 179.385 63.8954 178.687 63.5906C177.863 63.2141 176.986 62.9093 176.091 62.6763C174.642 62.2998 173.228 62.1205 171.832 62.1205C171.17 62.1205 170.561 62.1743 169.988 62.2998C169.416 62.4074 168.897 62.5866 168.449 62.8018C168.002 63.0169 167.662 63.3038 167.411 63.6623C167.161 64.0029 167.035 64.4153 167.035 64.8456C167.035 65.4372 167.232 65.9392 167.608 66.3694C167.984 66.7997 168.485 67.1583 169.094 67.463C169.702 67.7678 170.382 68.0367 171.134 68.2877C171.886 68.5387 172.619 68.7718 173.371 69.0407C174.695 69.5068 175.895 70.0088 176.968 70.5646C178.042 71.1204 178.973 71.7658 179.743 72.5008C180.512 73.2359 181.103 74.1143 181.514 75.1004C181.926 76.0864 182.123 77.2697 182.123 78.6501C182.123 80.5684 181.711 82.2178 180.87 83.5803C180.029 84.9428 178.937 86.0544 177.541 86.9149C176.163 87.7755 174.57 88.385 172.763 88.7794C170.955 89.1738 169.094 89.3711 167.143 89.3711C163.868 89.3711 160.807 88.9049 157.979 87.9727C157.55 87.8292 157.246 87.4348 157.246 86.9687V86.9508Z" fill="#F7B21F"/>
<path d="M56.269 10.7389C59.8485 10.7389 63.4458 11.0257 67.1685 11.9401C67.6338 12.0476 67.9739 12.4779 67.9739 12.9619V20.3124C67.9739 21.0116 67.3296 21.5136 66.6495 21.3343C64.5018 20.7606 61.3519 20.1331 58.7031 20.1331C52.7075 20.1331 48.6448 22.9658 48.6448 31.5174C48.6448 40.7503 52.9938 43.583 58.0767 43.583C60.797 43.583 64.0186 42.9734 66.6853 42.0232C67.3654 41.7902 68.0812 42.2921 68.0812 43.0272V50.2163C68.0812 50.6645 67.8128 51.0589 67.3833 51.2024C64.0723 52.3677 59.5442 52.8697 56.3764 52.8697C42.6492 52.8697 36.4746 45.3399 36.4746 31.7505C36.4746 18.1611 43.9915 10.7389 56.2511 10.7389H56.269Z" fill="#58194B"/>
<path d="M100.368 50.0729C100.368 50.557 100.046 50.9693 99.5806 51.0948C95.2315 52.2063 91.133 52.8697 87.0346 52.8697C76.2425 52.8697 70.408 47.7243 70.408 36.5552C70.408 25.3861 76.7973 20.1869 86.5155 20.1869C97.7729 20.1869 100.815 26.9279 100.815 34.852V37.9356C100.815 38.5093 100.35 38.9934 99.7595 38.9934H83.7415C83.0614 38.9934 82.5602 39.6388 82.7213 40.3021C83.4193 43.2423 86.086 44.2104 90.1308 44.2104C92.3143 44.2104 95.8579 43.6368 99.0615 42.8838C99.7237 42.7224 100.35 43.2244 100.35 43.9057V50.0729H100.368ZM88.8422 32.3063C89.4865 32.3063 89.9697 31.7326 89.8802 31.1051C89.6297 29.3302 88.699 27.7705 86.3366 27.7705C84.2247 27.7705 82.9719 29.2226 82.5781 31.0154C82.4349 31.6788 82.9361 32.2883 83.5983 32.2883H88.8243L88.8422 32.3063Z" fill="#58194B"/>
<path d="M115.42 52.1884H105.934C105.361 52.1884 104.878 51.7223 104.878 51.1306V10.0397C104.878 9.46599 105.344 8.98193 105.934 8.98193H115.42C115.992 8.98193 116.476 9.44806 116.476 10.0397V51.1306C116.476 51.7043 116.01 52.1884 115.42 52.1884Z" fill="#58194B"/>
<path d="M129.29 18.3403H123.724C123.151 18.3403 122.668 17.8742 122.668 17.2826V15.2209C122.668 12.3165 125.013 9.95004 127.93 9.95004H133.496C134.069 9.95004 134.552 10.4162 134.552 11.0078V13.0695C134.552 15.9738 132.207 18.3403 129.29 18.3403ZM132.333 52.1884H122.847C122.274 52.1884 121.791 51.7223 121.791 51.1306V21.9259C121.791 21.3522 122.256 20.8682 122.847 20.8682H132.333C132.905 20.8682 133.388 21.3343 133.388 21.9259V51.1306C133.388 51.7043 132.923 52.1884 132.333 52.1884Z" fill="#58194B"/>
<path d="M7.74951 95.0005H10.1478V111.602H18.0942V113.628H7.74951V95.0005Z" fill="#58194B"/>
<path d="M23.3918 96.4885C23.4275 97.3131 22.819 97.9765 21.8526 97.9765C20.9935 97.9765 20.385 97.3131 20.385 96.4885C20.385 95.6638 21.0114 94.9646 21.9063 94.9646C22.8011 94.9646 23.3918 95.6279 23.3918 96.4885ZM20.6893 113.628V100.253H23.1233V113.628H20.6893Z" fill="#58194B"/>
<path d="M27.0428 113.628C27.0965 112.713 27.1502 111.369 27.1502 110.168V93.9965H29.5484V102.405H29.6021C30.4612 100.917 32.0004 99.9486 34.148 99.9486C37.459 99.9486 39.8036 102.709 39.7678 106.779C39.7678 111.566 36.761 113.932 33.7901 113.932C31.8572 113.932 30.318 113.179 29.3158 111.422H29.2263L29.1189 113.628H27.0249H27.0428ZM29.5484 108.267C29.5484 108.572 29.6021 108.877 29.6558 109.146C30.1211 110.831 31.535 111.996 33.289 111.996C35.8304 111.996 37.3516 109.917 37.3516 106.851C37.3516 104.162 35.9736 101.885 33.3784 101.885C31.7319 101.885 30.1748 103.014 29.6737 104.861C29.62 105.13 29.5305 105.47 29.5305 105.847V108.249L29.5484 108.267Z" fill="#58194B"/>
<path d="M42.8462 104.431C42.8462 102.853 42.8104 101.508 42.7388 100.253H44.8685L44.958 102.871H45.0654C45.6739 101.078 47.1415 99.9486 48.7702 99.9486C49.0386 99.9486 49.2355 99.9844 49.4682 100.038V102.333C49.2176 102.279 48.967 102.243 48.6449 102.243C46.9267 102.243 45.7276 103.534 45.3876 105.363C45.3339 105.686 45.2802 106.08 45.2802 106.492V113.628H42.8819V104.431H42.8462Z" fill="#58194B"/>
<path d="M52.9401 107.389C52.9938 110.67 55.0878 112.032 57.5218 112.032C59.2578 112.032 60.3138 111.727 61.2265 111.333L61.6382 113.072C60.7791 113.466 59.3294 113.897 57.1997 113.897C53.0833 113.897 50.6313 111.189 50.6313 107.156C50.6313 103.122 53.0117 99.9486 56.8954 99.9486C61.2623 99.9486 62.4078 103.785 62.4078 106.241C62.4078 106.743 62.3541 107.12 62.3183 107.371H52.9401V107.389ZM60.0632 105.632C60.099 104.09 59.4368 101.688 56.6985 101.688C54.2466 101.688 53.1728 103.947 52.9759 105.632H60.0632Z" fill="#58194B"/>
<path d="M82.793 93.9965V110.168C82.793 111.351 82.8287 112.713 82.9003 113.628H80.7169L80.6095 111.315H80.5558C79.8041 112.803 78.1755 113.932 76.0099 113.932C72.7884 113.932 70.3006 111.189 70.3006 107.138C70.2648 102.692 73.0389 99.9486 76.2783 99.9486C78.3186 99.9486 79.6967 100.917 80.3052 101.992H80.3589V94.0144H82.793V93.9965ZM80.3589 105.686C80.3589 105.381 80.3231 104.968 80.2515 104.664C79.8936 103.122 78.5692 101.849 76.7437 101.849C74.238 101.849 72.7347 104.054 72.7347 107.012C72.7347 109.719 74.0591 111.96 76.6721 111.96C78.3007 111.96 79.7862 110.885 80.2336 109.056C80.3231 108.733 80.341 108.393 80.341 107.998V105.686H80.3589Z" fill="#58194B"/>
<path d="M88.1801 107.389C88.2338 110.67 90.3278 112.032 92.7618 112.032C94.4978 112.032 95.5538 111.727 96.4665 111.333L96.8782 113.072C96.0191 113.466 94.5694 113.897 92.4397 113.897C88.3233 113.897 85.8713 111.189 85.8713 107.156C85.8713 103.122 88.2517 99.9486 92.1354 99.9486C96.5023 99.9486 97.6478 103.785 97.6478 106.241C97.6478 106.743 97.5941 107.12 97.5583 107.371H88.1801V107.389ZM95.2853 105.632C95.3211 104.09 94.6589 101.688 91.9206 101.688C89.4687 101.688 88.3949 103.947 88.198 105.632H95.2853Z" fill="#58194B"/>
<path d="M120.717 112.803C119.643 113.197 117.514 113.825 115.008 113.825C112.198 113.825 109.871 113.108 108.064 111.369C106.471 109.827 105.469 107.335 105.469 104.431C105.505 98.8729 109.299 94.8212 115.545 94.8212C117.693 94.8212 119.375 95.2873 120.18 95.6817L119.608 97.6359C118.623 97.1877 117.37 96.8291 115.491 96.8291C110.963 96.8291 108.01 99.6438 108.01 104.323C108.01 109.002 110.856 111.835 115.187 111.835C116.762 111.835 117.836 111.62 118.391 111.333V105.775H114.614V103.839H120.735V112.785L120.717 112.803Z" fill="#58194B"/>
<path d="M124.315 93.9965H126.749V113.61H124.315V93.9965Z" fill="#58194B"/>
<path d="M141.997 109.97C141.997 111.351 142.033 112.57 142.105 113.61H139.957L139.814 111.422H139.76C139.134 112.498 137.72 113.914 135.339 113.914C133.245 113.914 130.74 112.749 130.74 108.052V100.235H133.174V107.64C133.174 110.185 133.943 111.889 136.145 111.889C137.773 111.889 138.901 110.759 139.348 109.683C139.492 109.325 139.563 108.877 139.563 108.446V100.235H141.997V109.97Z" fill="#58194B"/>
<path d="M148.941 96.4167V100.253H152.413V102.1H148.941V109.307C148.941 110.956 149.407 111.907 150.767 111.907C151.393 111.907 151.877 111.817 152.181 111.745L152.288 113.574C151.823 113.771 151.071 113.897 150.141 113.897C149.013 113.897 148.1 113.538 147.527 112.875C146.83 112.158 146.597 110.974 146.597 109.397V102.1H144.521V100.253H146.597V97.0442L148.977 96.4167H148.941Z" fill="#58194B"/>
<path d="M156.333 107.389C156.387 110.67 158.481 112.032 160.915 112.032C162.651 112.032 163.707 111.727 164.619 111.333L165.031 113.072C164.172 113.466 162.722 113.897 160.592 113.897C156.476 113.897 154.024 111.189 154.024 107.156C154.024 103.122 156.405 99.9486 160.288 99.9486C164.655 99.9486 165.801 103.785 165.801 106.241C165.801 106.743 165.747 107.12 165.711 107.371H156.333V107.389ZM163.456 105.632C163.492 104.09 162.83 101.688 160.091 101.688C157.639 101.688 156.566 103.947 156.369 105.632H163.456Z" fill="#58194B"/>
<path d="M168.807 103.875C168.807 102.494 168.772 101.365 168.7 100.253H170.848L170.991 102.458H171.044C171.707 101.186 173.246 99.9486 175.465 99.9486C177.309 99.9486 180.19 101.06 180.19 105.65V113.628H177.756V105.919C177.756 103.767 176.951 101.974 174.66 101.974C173.067 101.974 171.814 103.104 171.402 104.466C171.295 104.771 171.241 105.184 171.241 105.596V113.646H168.807V103.893V103.875Z" fill="#58194B"/>
</g>
<defs>
<clipPath id="clip0_144_75">
<rect width="191" height="122" fill="white"/>
</clipPath>
</defs>
</svg>
