<svg width="56" height="56" viewBox="0 0 56 56" fill="none" xmlns="http://www.w3.org/2000/svg">
<g id="Frame">
<path id="Vector" d="M12.6 14C10.2804 14 8.40001 15.8804 8.40001 18.2V35C8.40001 37.3195 10.2804 39.2 12.6 39.2H30.9378C30.8762 38.6473 30.8361 38.0842 30.8176 37.5119L30.8168 37.4889L30.8056 36.7749V30.45C30.8056 28.5088 32.319 26.6 34.5856 26.6C36.6657 26.6 38.656 25.7511 40.6675 23.5965C41.3846 22.8287 42.3693 22.4048 43.3896 22.4H43.4157C44.4363 22.4048 45.421 22.8287 46.1378 23.5965C46.6259 24.1193 47.1128 24.5652 47.6 24.9407V18.2C47.6 15.8804 45.7195 14 43.4 14H12.6ZM7.00001 42H31.4636C31.7276 42.9752 32.0732 43.9102 32.5038 44.8H7.00001C6.22681 44.8 5.60001 44.1731 5.60001 43.4C5.60001 42.6269 6.22681 42 7.00001 42ZM43.4028 50.4C43.2989 50.3997 43.1953 50.3818 43.0956 50.3462C41.1586 49.6544 39.513 48.7382 38.1637 47.6031L38.1598 47.6C37.1868 46.781 36.3678 45.8478 35.7045 44.8031L35.7025 44.8C34.4092 42.7608 33.7092 40.2962 33.6162 37.4212L33.6056 36.7525V30.45C33.6056 29.8701 34.0444 29.4 34.5856 29.4C37.5827 29.4 40.2777 28.117 42.7143 25.5074C42.9044 25.3036 43.1533 25.2012 43.4028 25.2C43.652 25.2012 43.9009 25.3036 44.0913 25.5074C46.5279 28.117 49.2226 29.4 52.22 29.4C52.7612 29.4 53.2 29.8701 53.2 30.45V36.7525L53.1894 37.4212C53.0961 40.2962 52.3964 42.7608 51.1028 44.8L51.1008 44.8031C50.4378 45.8478 49.6188 46.781 48.6455 47.6L48.6419 47.6031C47.2923 48.7382 45.6467 49.6544 43.71 50.3462C43.6103 50.3818 43.5064 50.3997 43.4028 50.4Z" fill="#212121"/>
</g>
</svg>
