<svg width="49" height="49" viewBox="0 0 49 49" fill="none" xmlns="http://www.w3.org/2000/svg">
<g id="ri:whatsapp-fill">
<path id="Vector" d="M24.502 4.08334C35.7781 4.08334 44.9187 13.2239 44.9187 24.5C44.9187 35.7761 35.7781 44.9167 24.502 44.9167C20.8939 44.9225 17.3494 43.9676 14.2324 42.1502L4.09352 44.9167L6.85385 34.7737C5.03492 31.6558 4.07933 28.1097 4.08536 24.5C4.08536 13.2239 13.2259 4.08334 24.502 4.08334ZM17.544 14.9042L17.1357 14.9205C16.8713 14.9366 16.613 15.0061 16.3762 15.1247C16.1547 15.2501 15.9525 15.4069 15.7759 15.5902C15.5309 15.8209 15.3921 16.021 15.2431 16.2149C14.4879 17.1968 14.0813 18.4022 14.0875 19.6408C14.0916 20.6413 14.3529 21.6151 14.7612 22.5257C15.5963 24.3673 16.9703 26.3171 18.7833 28.124C19.2202 28.5588 19.649 28.9958 20.1104 29.402C22.3631 31.3854 25.0477 32.8158 27.9504 33.5793L29.1101 33.7569C29.4878 33.7773 29.8655 33.7487 30.2452 33.7304C30.8398 33.6997 31.4204 33.5387 31.9459 33.2587C32.2133 33.121 32.4742 32.9711 32.7279 32.8096C32.7279 32.8096 32.8157 32.7524 32.9831 32.6258C33.2587 32.4217 33.4282 32.2767 33.6568 32.0378C33.8263 31.8622 33.9733 31.656 34.0856 31.4212C34.2448 31.0885 34.4041 30.4535 34.4694 29.9247C34.5184 29.5205 34.5041 29.3 34.498 29.1632C34.4898 28.9447 34.3081 28.7181 34.1101 28.6221L32.9218 28.0893C32.9218 28.0893 31.1456 27.3155 30.0594 26.8214C29.9458 26.7717 29.824 26.7434 29.7001 26.7377C29.5604 26.7233 29.4193 26.739 29.2861 26.7838C29.153 26.8285 29.031 26.9012 28.9283 26.997C28.9181 26.9929 28.7813 27.1093 27.3052 28.8978C27.2205 29.0116 27.1038 29.0976 26.97 29.1449C26.8362 29.1922 26.6913 29.1985 26.5539 29.1632C26.4209 29.1275 26.2906 29.0825 26.1639 29.0284C25.9108 28.9223 25.823 28.8814 25.6494 28.8079C24.4776 28.2966 23.3927 27.6057 22.4338 26.7601C22.1766 26.5355 21.9377 26.2905 21.6927 26.0537C20.8895 25.2845 20.1895 24.4143 19.6102 23.4649L19.4897 23.2709C19.4032 23.1406 19.3333 23 19.2815 22.8524C19.2039 22.5523 19.406 22.3113 19.406 22.3113C19.406 22.3113 19.9021 21.7683 20.1328 21.4743C20.3574 21.1884 20.5473 20.9108 20.6698 20.7127C20.9107 20.3248 20.9863 19.9267 20.8597 19.6184C20.288 18.2219 19.6959 16.8315 19.0875 15.4513C18.9671 15.1778 18.6098 14.9818 18.2851 14.943C18.1749 14.9307 18.0646 14.9185 17.9544 14.9103C17.6802 14.8967 17.4055 14.8994 17.1316 14.9185L17.544 14.9042Z" fill="black"/>
</g>
</svg>
