<svg width="45" height="33" viewBox="0 0 45 33" fill="none" xmlns="http://www.w3.org/2000/svg">
<path id="Vector" d="M29.9314 16.5001C28.7432 16.5001 27.6253 15.8674 27.0207 14.8549L22.4998 7.36009L17.9861 14.8549C17.3744 15.8744 16.2565 16.5072 15.0683 16.5072C14.7519 16.5072 14.4355 16.465 14.1332 16.3736L4.50098 13.6175V26.1323C4.50098 27.1659 5.20406 28.0658 6.20244 28.3119L21.403 32.1156C22.1202 32.2913 22.8725 32.2913 23.5826 32.1156L38.7973 28.3119C39.7956 28.0588 40.4987 27.1588 40.4987 26.1323V13.6175L30.8665 16.3666C30.5642 16.458 30.2478 16.5001 29.9314 16.5001ZM44.8789 8.61158L41.258 1.38391C41.0401 0.947997 40.569 0.694887 40.0839 0.758165L22.4998 3.00099L28.9471 13.6948C29.2143 14.1378 29.7486 14.3487 30.2478 14.2081L44.1618 10.2357C44.8578 10.0318 45.1953 9.25841 44.8789 8.61158ZM3.74166 1.38391L0.120791 8.61158C-0.202627 9.25841 0.141883 10.0318 0.830902 10.2287L14.7449 14.2011C15.2441 14.3417 15.7784 14.1308 16.0456 13.6878L22.4998 3.00099L4.90877 0.758165C4.42364 0.701918 3.95961 0.947997 3.74166 1.38391Z" fill="black"/>
</svg>
